<?xml version="1.0" encoding="UTF-8"?>
<svg width="166px" height="48px" viewBox="0 0 166 48" version="1.1" xmlns="http://www.w3.org/2000/svg" xmlns:xlink="http://www.w3.org/1999/xlink">
    <!-- Generator: Sketch 48.2 (47327) - http://www.bohemiancoding.com/sketch -->
    <title>Group</title>
    <desc>Created with Sketch.</desc>
    <defs>
        <filter x="-0.7%" y="-1.0%" width="101.5%" height="102.6%" filterUnits="objectBoundingBox" id="filter-1">
            <feOffset dx="0" dy="2" in="SourceAlpha" result="shadowOffsetOuter1"></feOffset>
            <feGaussianBlur stdDeviation="3" in="shadowOffsetOuter1" result="shadowBlurOuter1"></feGaussianBlur>
            <feColorMatrix values="0 0 0 0 0   0 0 0 0 0   0 0 0 0 0  0 0 0 0.33910779 0" type="matrix" in="shadowBlurOuter1" result="shadowMatrixOuter1"></feColorMatrix>
            <feMerge>
                <feMergeNode in="shadowMatrixOuter1"></feMergeNode>
                <feMergeNode in="SourceGraphic"></feMergeNode>
            </feMerge>
        </filter>
    </defs>
    <g id="工作台-PMO-统计-Copy" stroke="none" stroke-width="1" fill="none" fill-rule="evenodd" transform="translate(-43.000000, -58.000000)">
        <g id="登录界面">
            <g id="Group" transform="translate(42.000000, 56.000000)">
                <g id="One-Copy-4" transform="translate(50.000000, 6.000000)" fill="#295DCF">
                    <path d="M8.22916667,2.58563536 L21.2291667,2.58563536 L20.7083333,7.55801105 L7.70833333,7.55801105 L8.22916667,2.58563536 Z M7.22916667,2.58563536 L6.70833333,7.55801105 L1,7.55801105 L1,2.58563536 L7.22916667,2.58563536 Z M22.2291667,2.58563536 L35,2.58563536 L35,7.55801105 L21.7083333,7.55801105 L22.2291667,2.58563536 Z" id="Combined-Shape"></path>
                    <g id="Group-2" transform="translate(7.500000, 0.000000)">
                        <polygon id="Fill-50" points="0 9.54696133 6 9.54696133 7 0 1 0"></polygon>
                        <polygon id="Fill-50" points="14 9.54696133 20 9.54696133 21 0 15 0"></polygon>
                    </g>
                    <path d="M46.2291667,2.58563536 L59.2291667,2.58563536 L58.7083333,7.55801105 L45.7083333,7.55801105 L46.2291667,2.58563536 Z M45.2291667,2.58563536 L44.7083333,7.55801105 L39,7.55801105 L39,2.58563536 L45.2291667,2.58563536 Z M60.2291667,2.58563536 L73,2.58563536 L73,7.55801105 L59.7083333,7.55801105 L60.2291667,2.58563536 Z" id="Combined-Shape"></path>
                    <polygon id="Fill-45" points="40 15.5138122 72 15.5138122 72 10.5414365 40 10.5414365"></polygon>
                    <g id="Group-3" transform="translate(45.500000, 0.000000)">
                        <polygon id="Fill-50" points="0 9.54696133 6 9.54696133 7 0 1 0"></polygon>
                        <polygon id="Fill-50" points="14 9.54696133 20 9.54696133 21 0 15 0"></polygon>
                    </g>
                    <polygon id="Fill-45" points="39 35.801105 73 35.801105 72 30.8287293 39 30.8287293"></polygon>
                    <polygon id="Fill-50" points="66 35.801105 73 35.801105 73 29.8342541 66 29.8342541"></polygon>
                    <polygon id="Fill-45" points="41 35.801105 72 15.5138122 70 10.5414365 39 30.8287293"></polygon>
                    <polygon id="Fill-45" points="85 7.55801105 111 7.55801105 111 2.58563536 85 2.58563536"></polygon>
                    <polygon id="Fill-45" points="79 29.8342541 109 29.8342541 109 24.8618785 79 24.8618785"></polygon>
                    <polygon id="Fill-50" points="102 36 109 36 109 26.4530387 102 26.4530387"></polygon>
                    <polygon id="Fill-50" points="79 33.4143646 86 33.4143646 86 26.4530387 79 26.4530387"></polygon>
                    <polygon id="Fill-45" points="79 35.801105 101 35.801105 101 30.8287293 79 30.8287293"></polygon>
                    <polygon id="Fill-50" points="104 9.54696133 111 9.54696133 111 2.58563536 104 2.58563536"></polygon>
                    <polygon id="Fill-50" points="77 9.54696133 84 9.54696133 84 2.58563536 77 2.58563536"></polygon>
                    <path d="M82,15.5138122 L101.027624,15.5138122 C103.773792,15.5138122 106,13.2876037 106,10.5414365 L82,10.5414365 L82,15.5138122 Z" id="Fill-50"></path>
                    <polygon id="Fill-50" points="82 15.5138122 86 15.5138122 86 10.5414365 82 10.5414365"></polygon>
                    <polygon id="Fill-50" points="90.5 2.98342541 97.5 2.98342541 97.8 0 90.8 0"></polygon>
                    <path d="M77,24.1657459 C96.3181678,23.4841388 105.984834,20.6333101 106,15.6132597 C106.001621,15.076724 105.997812,12.2297685 106,10.640884 C105.993428,15.412068 96.3267616,18.2628967 77,19.1933702 L77,24.1657459 Z" id="Fill-45"></path>
                    <path d="M80.1,11.0241282 C86.5628669,9.54943719 89.7962002,7.43273884 89.8,4.67403315 C89.8098576,-2.48274288 89.8227483,2.11633321 89.8,9.64640884 C89.7912341,12.5480679 86.5579008,14.7249897 80.1,16.1771744 L80.1,11.0241282 Z" id="Combined-Shape"></path>
                    <path d="M82.012673,24.1657459 C101.330841,23.4841388 110.997507,20.6333101 111.012673,15.6132597 C111.012673,14.0205745 111.012673,12.0970962 111.012673,10.640884 C111.006101,15.412068 101.339435,18.2628967 82.012673,19.1933702 L82.012673,24.1657459 Z" id="Fill-45" transform="translate(96.512673, 17.403315) scale(-1, 1) translate(-96.512673, -17.403315) "></path>
                    <path d="M1,35.801105 C29.5,32.6187845 33,14.121547 33,10.5414365 C31.3387183,10.5414365 28.8528493,10.5414365 27.2,10.5414365 C27.1877049,10.5414365 26.5,27.4475138 1,30.4309392 C1,32.5233933 1,34.1691935 1,35.801105 Z" id="Fill-45"></path>
                    <path d="M34.9745192,35.7982572 L34.9800368,30.3291547 C34.9866895,30.3299333 34.9933439,30.330713 35,30.3314917 C35,32.4239458 35,34.1691935 35,35.801105 C34.9915042,35.8001563 34.9830106,35.7992063 34.9745192,35.7982549 Z M11.946068,27.0183244 C4.32074318,20.5689614 3,12.7406713 3,10.5414365 C4.66128167,10.5414365 6.84715067,10.5414365 8.5,10.5414365 C8.53718604,10.5414365 8.9876139,18.3379751 17.3280898,24.2532567 C15.8045879,25.2603604 14.0251626,26.1999632 11.946068,27.0183244 Z" id="Combined-Shape"></path>
                    <path d="M12.7383119,27.6650972 C14.7656372,26.8702752 16.499799,25.96867 17.9839515,25.0045491 C21.8577099,27.4198333 27.31035,29.4318252 35,30.3314917 C35,32.4239458 35,34.1691935 35,35.801105 C24.597069,34.6395099 17.5250389,31.4374159 12.7382968,27.6651031 Z M3,10.5414365 L8.3,10.5414365 L3,10.5414365 Z" id="Combined-Shape"></path>
                </g>
                <g id="logo">
                    <rect id="Rectangle-Copy-3" x="1" y="1" width="46" height="46"></rect>
                    <polygon id="Rectangle-5" fill="#FF1E25" points="7 7 22 7 7 22"></polygon>
                    <polygon id="Rectangle-5" fill="#295DCF" transform="translate(34.500000, 34.500000) scale(1, -1) translate(-34.500000, -34.500000) " points="27 27 42 27 27 42"></polygon>
                    <polygon id="Rectangle-6" fill="#295DCF" transform="translate(21.000000, 21.000000) rotate(45.000000) translate(-21.000000, -21.000000) " points="16.0502525 6.1507576 25.9497475 -3.74873734 25.9497475 45.7487373 16.0502525 35.8492424"></polygon>
                </g>
            </g>
        </g>
    </g>
</svg>